<?xml version="1.0" standalone="no"?>
<!DOCTYPE svg PUBLIC "-//W3C//DTD SVG 20010904//EN"
 "http://www.w3.org/TR/2001/REC-SVG-20010904/DTD/svg10.dtd">
<svg version="1.0" xmlns="http://www.w3.org/2000/svg"
 width="700.000000pt" height="700.000000pt" viewBox="0 0 700.000000 700.000000"
 preserveAspectRatio="xMidYMid meet">
<metadata>
Created by potrace 1.14, written by Peter Selinger 2001-2017
</metadata>
<g transform="translate(0.000000,700.000000) scale(0.100000,-0.100000)"
fill="#000000" stroke="none">
<path d="M3319 6016 c-2 -2 -33 -6 -69 -10 -122 -12 -180 -21 -320 -51 -356
-75 -775 -287 -1073 -543 -145 -125 -329 -333 -449 -508 -50 -73 -188 -313
-188 -327 0 -3 -14 -36 -32 -74 -72 -156 -142 -394 -136 -464 6 -59 50 -150
90 -184 62 -52 108 -69 188 -69 91 0 153 27 210 92 31 35 47 71 90 203 160
492 465 871 902 1122 221 126 501 219 738 244 93 10 397 10 465 0 109 -16 223
-39 290 -58 459 -132 837 -407 1107 -804 53 -79 169 -296 183 -345 4 -14 13
-38 21 -55 7 -16 27 -77 45 -135 36 -119 42 -132 84 -178 127 -141 367 -106
452 65 40 83 37 161 -11 313 -20 63 -40 124 -45 135 -5 11 -24 56 -42 100
-266 643 -847 1182 -1514 1403 -81 27 -226 67 -280 78 -58 11 -73 14 -107 19
-78 11 -114 16 -138 21 -29 6 -455 15 -461 10z"/>
<path d="M4164 4620 c-60 -13 -124 -52 -177 -108 -30 -31 -128 -140 -217 -242
-194 -220 -264 -299 -389 -439 -145 -164 -149 -169 -261 -296 -58 -65 -112
-126 -120 -135 -8 -9 -28 -32 -45 -51 -43 -49 -254 -287 -291 -329 -169 -189
-186 -218 -190 -326 -4 -100 18 -155 87 -226 45 -45 68 -60 117 -75 93 -29
175 -21 251 24 47 27 56 36 149 142 32 35 62 69 67 75 6 6 62 70 125 141 63
72 119 135 125 141 8 9 74 83 145 164 8 9 43 48 76 86 34 38 137 155 229 259
92 105 195 222 230 260 34 39 100 113 146 165 46 52 89 100 94 106 15 16 127
144 147 167 44 50 63 110 63 197 0 97 -13 133 -76 204 -68 77 -187 117 -285
96z"/>
<path d="M1260 3210 c-116 -34 -194 -127 -206 -247 -6 -66 17 -158 88 -348
204 -547 597 -1009 1108 -1302 201 -115 394 -193 625 -252 147 -38 219 -51
375 -68 140 -15 580 -6 610 12 3 2 24 6 46 9 21 3 51 8 67 11 15 3 38 7 51 9
137 24 386 109 561 192 157 74 428 244 485 304 3 3 32 27 65 54 56 46 235 223
280 277 69 83 67 81 148 194 163 228 287 491 367 777 59 211 -62 384 -265 382
-79 -1 -127 -19 -179 -65 -57 -49 -80 -96 -111 -219 -12 -52 -80 -220 -120
-300 -219 -436 -588 -776 -1037 -954 -86 -34 -294 -94 -355 -102 -26 -3 -51
-8 -54 -10 -30 -17 -418 -26 -537 -11 -429 53 -834 246 -1137 544 -240 235
-396 488 -501 809 -24 76 -51 153 -59 170 -19 40 -83 99 -132 120 -41 18 -143
26 -183 14z"/>
</g>
</svg>
